/* XPM */
static char * exit_red2_xpm[] = {
"64 64 38 1",
" 	c #864E36",
".	c #6C3324",
"+	c #874F37",
"@	c #885037",
"#	c #8C5338",
"$	c #8B5238",
"%	c #7B4432",
"&	c #5F3043",
"*	c #5E2C40",
"=	c #5D2B3F",
"-	c #5B263A",
";	c #5A2438",
">	c #764034",
",	c #571D32",
"'	c #571C31",
")	c #56182C",
"!	c #5E2D40",
"~	c #592136",
"{	c #571C32",
"]	c #55162A",
"^	c #541324",
"/	c #56192D",
"(	c #7A6C8A",
"_	c #9C98AF",
":	c #551527",
"<	c #5C283B",
"[	c #5A2538",
"}	c #644768",
"|	c #592335",
"1	c #733A29",
"2	c #592C4A",
"3	c #79412D",
"4	c #6F3526",
"5	c #664767",
"6	c #824B35",
"7	c #773F2C",
"8	c #7A4430",
"9	c #824A34",
"            .               .               .               .   ",
"            .               .               .               .   ",
".... ..    ......... ..    ......... ..    ......... ..    .....",
"                                                                ",
"                                                                ",
"                                                                ",
"     .               .               .               .          ",
"........ ..    ......... ..    ......... ..    ......... ..    .",
" .               .               .               .              ",
"                                                                ",
"                                                                ",
"                                                                ",
"...   .............   .............   .............   ..........",
"            .               .               .               .   ",
"                                                                ",
"                  +@+   ++    @   @@#@+  @ @ @                  ",
"            .     $#$#@#$###.##@##@@##$ ##@#.####@          .   ",
"            .   %%&&&&&&&&&&&&&&&&*&=&&-&&&=&=*=##@         .   ",
".... ..    .......&&--;&&&&&&&=&&&&&&&&&&&&&&=*=.... ..    .....",
"                 >,,',,,,&&&,)&&,-&-!&&&&~&&&&&=##              ",
"                  )''{],^^,,],,;,-&-=~/;!&&&==&&##              ",
"                  ((____^^'{,,]{)'),,,,--&&&&-=,##              ",
"     .            ((____^^^^,,,{,,{,,^':,,^&&<&[##   .          ",
"........ ..    ...}}((__^^^^^^^^'){,,,,,',',^'-|........ ..    .",
" .                }}((__^^^^^^^^^^^)),',,,,,',;&$1              ",
"                  }}((((^^^^^^^^^^^^^]^,,,',,',]##              ",
"                  }}((((^^^^^^^^^^^^^^^^^^{{],')#@+             ",
"                  }}((((22}}((((^^^^^^^^^^^^,,''#$$             ",
"...   ............}}((((22}}((((^^^^^^^^^^^^^^))3..   ..........",
"            .     }}((((2222}}((^^^^^^^^^^^^^^^^##          .   ",
"                  }}((((2222}}((^^^^^^^^^^^^^^^^##              ",
"                  }}((((2222}}}}22}}((((^^^^^^^^#$              ",
"            .     }}((((2222}}}}22}}((((^^^^^^^^##          .   ",
"            .     }}((((2222}}}}2222}}((^^^^^^^^##          .   ",
".... ..    .......}}((((2222}}}}2222}}((^^^^^^^^.... ..    .....",
"                  }}((((2222}}}}2222}}}}^^22}}^^#@              ",
"                  }}((((2222}}}}2222}}}}^^22}}^^##              ",
"                  }}((((2222}}}}2222}}}}^^^^}}^^$$              ",
"     .            }}((((2222}}}}2222}}}}^^^^}}^^$$   .          ",
"........ ..    .4.}}((((2222}}}}2222}}}}^^^^22^^........ ..    .",
" .                }}((((2222}}}}2222}}}}^^^^22^^#.              ",
"                  }}((((2222}}}}2222}}}}^^^^22^^##@             ",
"                  5}((((2222}}}}2222}}}}^^^^22^^$#              ",
"                6 }}((__2222}}}}2222}}}}^^^^22^^                ",
"...   ..........4.}}((__2222}}}}2222}}}}^^^^22^^7..   ..........",
"            .     ((____2222}}((2222}}}}^^^^22^^##          .   ",
"                  ((____2222}}((2222}}}}^^^^22^^$#@             ",
"                  888888888888888888888888888888#@              ",
"            .               .    99999      .               .   ",
"            .               .               .               .   ",
".... ..    ......... ..    ......... ..    ......... ..    .....",
"                                                                ",
"                                                                ",
"                                                                ",
"     .               .               .               .          ",
"........ ..    ......... ..    ......... ..    ......... ..    .",
" .               .               .               .              ",
"                                                                ",
"                                                                ",
"                                                                ",
"...   .............   .............   .............   ..........",
"            .               .               .               .   ",
"                                                                ",
"                                                                "};
