/* XPM */
static char *e93a638fd9044a5bff408a9e2b73bd99SiHaiGquUyKpi4xL[] = {
/* columns rows colors chars-per-pixel */
"64 64 40 1 ",
"  c #181425",
". c #1B1628",
"X c #1D182B",
"o c #1E1A2D",
"O c #201B2E",
"+ c #231E33",
"@ c #231E34",
"# c #241F34",
"$ c #2A2537",
"% c #282338",
"& c #2B263B",
"* c #2C273A",
"= c #2C283B",
"- c #2E293D",
"; c #302B3E",
": c #503625",
"> c #543927",
", c #5A3E2A",
"< c #5F4436",
"1 c #61432D",
"2 c #63452E",
"3 c #654832",
"4 c #664834",
"5 c #704F36",
"6 c #705037",
"7 c #755338",
"8 c #775439",
"9 c #785539",
"0 c #7C573A",
"q c #7D583B",
"w c #2A2F4E",
"e c #332E42",
"r c #342F43",
"t c #343043",
"y c #373346",
"u c #383346",
"i c #424C6E",
"p c #444C6D",
"a c #657392",
"s c #92A1B9",
/* pixels */
"777777777777:777777777777777:777777777777777:777777777777777:777",
"777777777777:777777777777777:777777777777777:777777777777777:777",
"::::7::7777:::::::::7::7777:::::::::7::7777:::::::::7::7777:::::",
"7777777777777777777777777777777777777777777777777777777777777777",
"7777777777777777777777777777777777777777777777777777777777777777",
"7777777777777777777777777777777777777777777777777777777777777777",
"77777:777777777777777:777777777777777:777777777777777:7777777777",
"::::::::7::7777:::::::::7::7777:::::::::7::7777:::::::::7::7777:",
"7:777777777777777:777777777777777:777777777777777:77777777777777",
"7777777777777777777777777777777777777777777777777777777777777777",
"7777777777777777777777777777777777777777777777777777777777777777",
"7777777777777777777777777777777777777777777777777777777777777777",
":::777:::::::::::::777:::::::::::::777:::::::::::::777::::::::::",
"777777777777:777777777777777:777777777777777:777777777777777:777",
"7777777777777777777777777777777777777777777777777777777777777777",
"777777777777777777898777887777977799q987797979777777777777777777",
"777777777777:777770q0q9q0qqq:qq9qq99qq07qq9q:qqqq97777777777:777",
"777777777777:77744yyuuuyyyyyyyuuyyrueyy-yyyeyereqq9777777777:777",
"::::7::7777:::::::yy--&yuyyuyyeuyyyuuyyuuuuuyere::::7::7777:::::",
"77777777777777777<##+####yyy#ouu#-y-tuyuu%yyuuyeqq77777777777777",
"777777777777777777o++@X#  ##X##&#-y-e%O*tyuyeeuyqq77777777777777",
"777777777777777777aassss  +@##X@o+o####--yuyy-e#qq77777777777777",
"77777:777777777777aassss    ###@##@## +.## yy;u=qq777:7777777777",
"::::::::7::7777:::iiaass        +o@#####+#+# +-$::::::::7::7777:",
"7:7777777777777777iiaass           oo#+#####+#&u0,77777777777777",
"777777777777777777iiaaaa             X ###+##+#Xqq77777777777777",
"777777777777777777iiaaaa                  @@X#+oq987777777777777",
"777777777777777777iiaaaawwiiaaaa            ##++q007777777777777",
":::777::::::::::::iiaaaawwiiaaaa              oo2::777::::::::::",
"777777777777:77777iiaaaawwwwiiaa                qq7777777777:777",
"777777777777777777iiaaaawwwwiiaa                qq77777777777777",
"777777777777777777iiaaaawwwwiiiiwwiiaaaa        q077777777777777",
"777777777777:77777iiaaaawwwwiiiiwwiiaaaa        qq7777777777:777",
"777777777777:77777iiaaaawwwwiiiiwwwwiiaa        qq7777777777:777",
"::::7::7777:::::::iiaaaawwwwiiiiwwwwiiaa        ::::7::7777:::::",
"777777777777777777iiaaaawwwwiiiiwwwwiiii  wwii  q977777777777777",
"777777777777777777iiaaaawwwwiiiiwwwwiiii  wwii  qq77777777777777",
"777777777777777777iiaaaawwwwiiiiwwwwiiii    ii  0077777777777777",
"77777:777777777777iiaaaawwwwiiiiwwwwiiii    ii  00777:7777777777",
"::::::::7::7777:>:iiaaaawwwwiiiiwwwwiiii    ww  ::::::::7::7777:",
"7:7777777777777777iiaaaawwwwiiiiwwwwiiii    ww  q:77777777777777",
"777777777777777777iiaaaawwwwiiiiwwwwiiii    ww  qq97777777777777",
"777777777777777777piaaaawwwwiiiiwwwwiiii    ww  0q77777777777777",
"777777777777777767iiaasswwwwiiiiwwwwiiii    ww  7777777777777777",
":::777::::::::::>:iiaasswwwwiiiiwwwwiiii    ww  1::777::::::::::",
"777777777777:77777aasssswwwwiiaawwwwiiii    ww  qq7777777777:777",
"777777777777777777aasssswwwwiiaawwwwiiii    ww  0q97777777777777",
"777777777777777777333333333333333333333333333333q977777777777777",
"777777777777:777777777777777:777755555777777:777777777777777:777",
"777777777777:777777777777777:777777777777777:777777777777777:777",
"::::7::7777:::::::::7::7777:::::::::7::7777:::::::::7::7777:::::",
"7777777777777777777777777777777777777777777777777777777777777777",
"7777777777777777777777777777777777777777777777777777777777777777",
"7777777777777777777777777777777777777777777777777777777777777777",
"77777:777777777777777:777777777777777:777777777777777:7777777777",
"::::::::7::7777:::::::::7::7777:::::::::7::7777:::::::::7::7777:",
"7:777777777777777:777777777777777:777777777777777:77777777777777",
"7777777777777777777777777777777777777777777777777777777777777777",
"7777777777777777777777777777777777777777777777777777777777777777",
"7777777777777777777777777777777777777777777777777777777777777777",
":::777:::::::::::::777:::::::::::::777:::::::::::::777::::::::::",
"777777777777:777777777777777:777777777777777:777777777777777:777",
"7777777777777777777777777777777777777777777777777777777777777777",
"7777777777777777777777777777777777777777777777777777777777777777"
};
