/* XPM */
static char * exit_red_xpm[] = {
"64 64 35 1",
" 	c #B7352B",
".	c #B02222",
"+	c #B8362C",
"@	c #B9382D",
"#	c #B9382C",
"$	c #B42E29",
"%	c #AD2033",
"&	c #AD1D31",
"*	c #AC192E",
"=	c #AC182D",
"-	c #B32B2A",
";	c #AC1329",
">	c #AB1026",
",	c #AD1E31",
"'	c #AC162B",
")	c #AB0F25",
"!	c #AB0D22",
"~	c #AB1126",
"{	c #AC182C",
"]	c #B44B63",
"^	c #BF6A7C",
"/	c #AB0E23",
"(	c #AD1B2F",
"_	c #AC192D",
":	c #AE304B",
"<	c #AC172B",
"[	c #B22724",
"}	c #AC1D38",
"|	c #B32C26",
"1	c #B12423",
"2	c #AF304B",
"3	c #B6332B",
"4	c #B32A26",
"5	c #B42E28",
"6	c #B6322A",
"            .               .               .               .   ",
"            .               .               .               .   ",
".... ..    ......... ..    ......... ..    ......... ..    .....",
"                                                                ",
"                                                                ",
"                                                                ",
"     .               .               .               .          ",
"........ ..    ......... ..    ......... ..    ......... ..    .",
" .               .               .               .              ",
"                                                                ",
"                                                                ",
"                                                                ",
"...   .............   .............   .............   ..........",
"            .               .               .               .   ",
"                                                                ",
"                  +++   ++    +   ++@++  + + +                  ",
"            .     #@#@+@#@@@.@@+@@++@@# @@+@.@@@@+          .   ",
"            .   $$%%%%%%%%%%%%%%%%&%&%%*%%%&%&&&@@+         .   ",
".... ..    .......%%**=%%%%%%%&%%%%%%%%%%%%%%&&&.... ..    .....",
"                 -;;;;;;;%%%;>%%;*%*,%%%%'%%%%%&@@              ",
"                  >;;;);!!;;);;=;*%*&'~{,%%%&&%%@@              ",
"                  ]]^^^^!!;;;;);>;>;;;;**%%%%*&;@@              ",
"     .            ]]^^^^!!!!;;;;;;;;;!;/;;!%%(%_@@   .          ",
"........ ..    ...::]]^^!!!!!!!!;>;;;;;;;;;;!;*<........ ..    .",
" .                ::]]^^!!!!!!!!!!!>>;;;;;;;;;=%#[              ",
"                  ::]]]]!!!!!!!!!!!!!)!;;;;;;;;)@@              ",
"                  ::]]]]!!!!!!!!!!!!!!!!!!;;);;>@++             ",
"                  ::]]]]}}::]]]]!!!!!!!!!!!!;;;;@##             ",
"...   ............::]]]]}}::]]]]!!!!!!!!!!!!!!>>|..   ..........",
"            .     ::]]]]}}}}::]]!!!!!!!!!!!!!!!!@@          .   ",
"                  ::]]]]}}}}::]]!!!!!!!!!!!!!!!!@@              ",
"                  ::]]]]}}}}::::}}::]]]]!!!!!!!!@#              ",
"            .     ::]]]]}}}}::::}}::]]]]!!!!!!!!@@          .   ",
"            .     ::]]]]}}}}::::}}}}::]]!!!!!!!!@@          .   ",
".... ..    .......::]]]]}}}}::::}}}}::]]!!!!!!!!.... ..    .....",
"                  ::]]]]}}}}::::}}}}::::!!}}::!!@+              ",
"                  ::]]]]}}}}::::}}}}::::!!}}::!!@@              ",
"                  ::]]]]}}}}::::}}}}::::!!!!::!!##              ",
"     .            ::]]]]}}}}::::}}}}::::!!!!::!!##   .          ",
"........ ..    .1.::]]]]}}}}::::}}}}::::!!!!}}!!........ ..    .",
" .                ::]]]]}}}}::::}}}}::::!!!!}}!!@.              ",
"                  ::]]]]}}}}::::}}}}::::!!!!}}!!@@+             ",
"                  2:]]]]}}}}::::}}}}::::!!!!}}!!#@              ",
"                3 ::]]^^}}}}::::}}}}::::!!!!}}!!                ",
"...   ..........1.::]]^^}}}}::::}}}}::::!!!!}}!!4..   ..........",
"            .     ]]^^^^}}}}::]]}}}}::::!!!!}}!!@@          .   ",
"                  ]]^^^^}}}}::]]}}}}::::!!!!}}!!#@+             ",
"                  555555555555555555555555555555@+              ",
"            .               .    66666      .               .   ",
"            .               .               .               .   ",
".... ..    ......... ..    ......... ..    ......... ..    .....",
"                                                                ",
"                                                                ",
"                                                                ",
"     .               .               .               .          ",
"........ ..    ......... ..    ......... ..    ......... ..    .",
" .               .               .               .              ",
"                                                                ",
"                                                                ",
"                                                                ",
"...   .............   .............   .............   ..........",
"            .               .               .               .   ",
"                                                                ",
"                                                                "};
