/* XPM */
static char *ajzlp_g8w74[] = {
/* columns rows colors chars-per-pixel */
"16 15 5 1 ",
"  c #181425",
". c #2A2F4E",
"X c #424C6E",
"o c #657392",
"O c #92A1B9",
/* pixels */
"                ",
"                ",
" oOO            ",
" XoO            ",
" Xoo            ",
" Xoo.Xoo        ",
" Xoo..Xo        ",
" Xoo..XX.Xoo    ",
" Xoo..XX..Xo    ",
" Xoo..XX..XX .X ",
" Xoo..XX..XX  X ",
" Xoo..XX..XX  . ",
" Xoo..XX..XX  . ",
" XoO..XX..XX  . ",
" oOO..Xo..XX  . "
};
