/* XPM */
static char * wall_xpm[] = {
"64 64 89 1",
" 	c #755338",
".	c #5E422B",
"+	c #543B26",
"@	c #583E29",
"#	c #694A32",
"$	c #725137",
"%	c #412C1C",
"&	c #3F291C",
"*	c #61442D",
"=	c #5B402A",
"-	c #583D28",
";	c #664830",
">	c #745237",
",	c #6E4E34",
"'	c #4B3222",
")	c #523925",
"!	c #503625",
"~	c #745338",
"{	c #6F4F35",
"]	c #63565B",
"^	c #1E2431",
"/	c #4D5873",
"(	c #677598",
"_	c #414B66",
":	c #524D5D",
"<	c #6A6F8B",
"[	c #687292",
"}	c #000000",
"|	c #563C27",
"1	c #6E6675",
"2	c #4F4D5F",
"3	c #4D4C60",
"4	c #382518",
"5	c #626986",
"6	c #060301",
"7	c #22140C",
"8	c #1F130B",
"9	c #3C2919",
"0	c #342315",
"a	c #5B596D",
"b	c #312114",
"c	c #725D5D",
"d	c #6D697D",
"e	c #604F52",
"f	c #242A3D",
"g	c #8F9AB0",
"h	c #5F4F53",
"i	c #49424E",
"j	c #504855",
"k	c #6D5244",
"l	c #8A8FA1",
"m	c #657191",
"n	c #484353",
"o	c #5E6B8B",
"p	c #725B56",
"q	c #545F7C",
"r	c #473C42",
"s	c #706168",
"t	c #553C2C",
"u	c #574138",
"v	c #322B33",
"w	c #202637",
"x	c #181111",
"y	c #63504F",
"z	c #131622",
"A	c #4C3422",
"B	c #030509",
"C	c #131623",
"D	c #5C402A",
"E	c #6E6574",
"F	c #261A16",
"G	c #05070E",
"H	c #06070E",
"I	c #2F374C",
"J	c #35251B",
"K	c #6A4C37",
"L	c #6A4B32",
"M	c #543B28",
"N	c #4F4957",
"O	c #5E422D",
"P	c #5A4743",
"Q	c #35251C",
"R	c #372925",
"S	c #343C53",
"T	c #1D191E",
"U	c #1C2131",
"V	c #404A64",
"W	c #2F364B",
"X	c #252C3D",
"   .+@.#  $%&*=-+;    >$,,,,',,    ,,,,#*)  !~$$$$,,,,   {  !   ",
" ]^/((_:++:____   <<[((_}}(((__|   _(((((_; !1((((_}((<<23  !   ",
"45((((__}}_____!!!(((((_}}(((__6778_(((((_9445((((_}((((__077a!!",
"b(((((__}}_____+++(((((_}}(((__}}}}_(((((_}}}(((((_}((((__}}}([c",
"<(((((((}_(((((___((((((__(((((}}__(((((((___((((((_((((((}}((< ",
"d(((((((_(((((((((((((((__(((((__((((((((((((((((((_((((((__((< ",
"e(((((((f(((((((((g(((((ff__(((ff((((((((((((g(((((f___(((ff(([h",
"i(((((((f(((((((((g(((((ff__(((ff((((((((((((g(((((f___(((ff(((_",
"j(((((((f(((((((((g(((((ff__(((ff((((((((((((g(((((f___(((ff(((k",
" <((((((_((((gg(((_gggg_(((((____(((gggggg(((_gggg_(((((((((___ ",
" lgg((((_(ggg((gggf____ggg(((((__((g((((((gggf____gggggggggg(__ ",
" lgg((((_(ggg((gggf____ggg(((((__((g((((((gggf____gggggggggg(__<",
"m(((((fff_((((((((fffff((((((ffff__((((((((((fffff((((((((((fffn",
"o_______f(((((____(f((((((_____ff(((((((_____(f(((((((((_____ffp",
"q_______f(((((____(f((((((_____ff(((((((_____(f(((((((((_____ffp",
"r_______f(_________f((((_______ff((___________f(((((_________ffs",
"t_______f(_________f((((_______ff((___________f(((((_________ff1",
"u_______f_(((______f____((_____ff__(__________f________(_____ffh",
"v_____ffff________fffff______ffffff__________fffff__________ffwx",
"{y____ffff________fffff______ffffff__________fffff__________ffzA",
"  fffffffffff(((((_ffffffffffffffffff((((((((_ffffffffffffffffB+",
"  fffffffffff(((((_ffffffffffffffffff((((((((_ffffffffffffffffC+",
"DE((((ffff((((____(f___((((((((fffff(((((____(f___(((((((((((fwF",
"((((((((f(____(_____(((((((((((((ff(_____(_____((((((((((((((((f",
"((((((((f(____(_____(((((((((((((ff(_____(_____((((((((((((((((f",
"((((((((f(____(_____(((((((((((((ff(_____(_____((((((((((((((((f",
"(_____((f__________(((((_______((ff___________(((((__________((f",
"________f_________f(_____________ff__________f(________________f",
"______ffffffffffffff___________ffffffffffffffff______________G7!",
"2_____ffffffffffffff___________ffffffffffffffff______________H0 ",
" I____ffffffffffffff___________ffffffffffffffff______________fJ ",
" ^(((((((((((ff___((((((__fff(((((((((((ff___((((((_ffff((((((/K",
"L/((______((((f(((((____((ff(((((____((((f(((((____(fff(((((___3",
"/________(____f(((________ff(_______(____f(((_______fff(_______(",
"(________(____f(((________ff(_______(____f(((_______fff(_______(",
"______________ffff______ffff_____________ffff______ffff_________",
"M:____________ffff______ffff_____________ffff______ffff_________",
" h___________ffffffffffffffff___________ffffffffffffffff________",
" 1((((fff_((((((((fffff((((((ffff__((((((((((fffff((((((((((fff_",
"N5((((fff_((((((((fffff((((((ffff__((((((((((fffff((((((((((fff_",
"(_______f(((((____(f((((((_____ff(((((((_____(f(((((((((_____ff(",
"(_______f(((((____(f((((((_____ff(((((((_____(f(((((((((_____ff(",
"________f(_________f((((_______ff((___________f(((((_________ff(",
"________f(_________f((((_______ff((___________f(((((_________ff(",
"________f_(((______f____((_____ff__(__________f________(_____fG}",
"______ffff________fffff______ffffff__________fffff__________ffJ ",
"OP____ffff________fffff______ffffff__________fffff__________ffQ ",
"  fffffffffff(((((_ffffffffffffffffff((((((((_ffffffffffffffffR ",
"  fffffffffff(((((_ffffffffffffffffff((((((((_ffffffffffffffffff",
"L]((((ffff((((____(f___((((((((fffff(((((____(f___(((((((((((fff",
"m(((((((f(____(_____(((((((((((((ff(___________((((((((((((((((f",
"((((((((f(____(_____(((((((((((((ff(___________((((((((((((((((f",
"(_____((f__________(((((_______((ff___________(((((__________((f",
"(_____((f__________(((((_______((ff___________(((((__________((f",
"________f_________f(_____________ff__________f(_______________S}",
"T_____ffffffffffffff___________ffffffffffffffff______________fU}",
"+((((((((((((ff___((((((__fff(((((((((((ff___((((((_ffff((((((((",
"+((((((((((((ff___((((((__fff(((((((((((ff___((((((_ffff((((((((",
"A((((((((((((ff___((((((__fff(((((((((((ff___((((((_ffff((((((((",
"((((______((((f(((((____((ff(((((____((((f(((((____(fff(((((____",
"(________(____f(((________ff(_______(____f(((_______fff(_______(",
"______________ffff______ffff_____________ffff______ffff_________",
"SV____________ffff______ffff_____________ffff______ffff_______VW",
"}X____________ffff______ffff_____________ffff______ffff_______X}"};
