/* XPM */
static char *as7qa_1r05f[] = {
/* columns rows colors chars-per-pixel */
"48 39 6 1 ",
"  c None",
". c black",
"X c #242A3D",
"o c #414B66",
"O c #677598",
"+ c #8F9AB0",
/* pixels */
"  ....  ... .... ...  ..... .... ...  ........  ",
" .OOOo..ooo.OOOo.OOo..oOOOo.OOOo.OOo..OOooOOOO. ",
".OOOOO.oOOOoOOOOoOOO.oOOOOOoOOOOoOOO.OOOoOOOOOO.",
".OOOOOoOOOOOOOOOoOOOoOOOOOOOOOOOoOOOoOOOOOOOOOO.",
".oOOOOXOOOOO+OOOXoOOXOOOOOOO+OOOXoOOXOOoOOOOOOO.",
".OOOOOoOO++Oo++oOOOooOO++++Oo++oOOOOOooOO++++OO.",
".+++OOoO+OO+Xoo++OOOoO+OOOO+Xoo++++++OoO+OOOO+O.",
".OOOOXXoOOOOXXXOOOOXXoOOOOOOXXXOOOOOOXXoOOOOOOX.",
".OooooXOOOooOXOOOoooXOOOOoooOXOOOOOoooXOOOOoooO.",
".oooooXOoooooXOOooooXOoooooooXOOOoooooXOOOooooo.",
".oooooXoOooooXooOoooXoOooooooXooooOoooXoOoooooo.",
".ooooXXXooooXXXooooXXXooooooXXXooooooXXXoooooo..",
"..XXXXXXXOOOoXXXXXXXXXXXOOOOoXXXXXXXXXXXXXOOOO..",
"..OOOXXXOOooOXoOOOOOXXXOOOooOXoOOOOOOOXXXOOooOO.",
".OOOOOXOooOoooOOOOOOOXOoooOoooOOOOOOOOOXOoooooO.",
".OoooOXooooooOOOooooOXoooooooOOOooooooOXooooooo.",
".oooooXoooooXOoooooooXooooooXOoooooooooXooooooo.",
".ooooXXXXXXXXXooooooXXXXXXXXXXooooooooXXXooooo..",
"..OOOOOOOXXoOOOOoXXOOOOOOXXoOOOOoXXOOOOOOXXoOOO.",
".OOOooooOOXOOOooOXOOOoooOOXOOOooOXOOOoooOOXOOOo.",
".OoooooOooXOoooooXOooooOooXOoooooXOooooOooXOooo.",
".oooooooooXXooooXXooooooooXXooooXXooooooooXXooo.",
"..oooooooXXXXXXXXXXooooooXXXXXXXXXXooooooXXXXX..",
".OOOOXXoOOOOXXXOOOOXXoOOOOOOXXXOOOOOOXXoOOOOOOX.",
".OooooXOOOooOXOOOoooXOOOOoooOXOOOOOoooXOOOOoooO.",
".oooooXOoooooXOOooooXOoooooooXOOOoooooXOOOooooo.",
".oooooXoOooooXooOoooXoOooooooXooooOoooXoOoooooo.",
".ooooXXXooooXXXooooXXXooooooXXXooooooXXXoooooo..",
"..XXXXXXXOOOoXXXXXXXXXXXOOOOoXXXXXXXXXXXXXOOOO..",
"..OOOXXXOOooOXoOOOOOXXXOOOooOXoOOOOOOOXXXOOooOO.",
".OOOOOXOooOoooOOOOOOOXOoooooooOOOOOOOOOXOoooooO.",
".OoooOXooooooOOOooooOXoooooooOOOooooooOXooooooo.",
".oooooXoooooXOoooooooXooooooXOoooooooooXooooooo.",
".ooooXXXXXXXXXooooooXXXXXXXXXXooooooooXXXooooo..",
"..OOOOOOOXXoOOOOoXXOOOOOOXXoOOOOoXXOOOOOOXXoOOO.",
".OOOooooOOXOOOooOXOOOoooOOXOOOooOXOOOoooOOXOOOo.",
".OoooooOooXOoooooXOooooOooXOoooooXOooooOooXOooo.",
".oooooooooXXooooXXooooooooXXooooXXooooooooXXooo.",
" .............................................. "
};
