/* XPM */
static char * walls_xpm[] = {
"64 64 36 1",
" 	c #000000",
".	c #4D5873",
"+	c #1E2431",
"@	c #677598",
"#	c #414B66",
"$	c #242A3D",
"%	c #8F9AB0",
"&	c #3B445D",
"*	c #151923",
"=	c #15171C",
"-	c #6C7486",
";	c #5E6B8B",
">	c #545F7C",
",	c #2B3245",
"'	c #0E111B",
")	c #212737",
"!	c #202637",
"~	c #05070E",
"{	c #010103",
"]	c #131622",
"^	c #030509",
"/	c #06070E",
"(	c #131623",
"_	c #04060B",
":	c #2F374C",
"<	c #04060C",
"[	c #040508",
"}	c #05060C",
"|	c #030408",
"1	c #0F121E",
"2	c #343C53",
"3	c #0F131D",
"4	c #1C2131",
"5	c #404A64",
"6	c #2F364B",
"7	c #252C3D",
"                                                                ",
" .+.@@##  #####   @@@@@#  @@@##    #@@@@@#   @@@@@# @@@@##   @@@",
" @@@@@##  #####   @@@@@#  @@@##    #@@@@@#   @@@@@# @@@@##   @@@",
" @@@@@##  #####   @@@@@#  @@@##    #@@@@@#   @@@@@# @@@@##   @@@",
"@@@@@@@@ #@@@@@###@@@@@@##@@@@@  ##@@@@@@@###@@@@@@#@@@@@@  @@@@",
"@@@@@@@@#@@@@@@@@@@@@@@@##@@@@@##@@@@@@@@@@@@@@@@@@#@@@@@@##@@@@",
"#@@@@@@@$@@@@@@@@@%@@@@@$$##@@@$$@@@@@@@@@@@@%@@@@@$###@@@$$@@@#",
"#@@@@@@@$@@@@@@@@@%@@@@@$$##@@@$$@@@@@@@@@@@@%@@@@@$###@@@$$@@@#",
"&@@@@@@@$@@@@@@@@@%@@@@@$$##@@@$$@@@@@@@@@@@@%@@@@@$###@@@$$@@@#",
"*@@@@@@@#@@@@%%@@@#%%%%#@@@@@####@@@%%%%%%@@@#%%%%#@@@@@@@@@###@",
"=%%%@@@@#@%%%@@%%%$####%%%@@@@@##@@%@@@@@@%%%$####%%%%%%%%%%@##@",
"-%%%@@@@#@%%%@@%%%$####%%%@@@@@##@@%@@@@@@%%%$####%%%%%%%%%%@##@",
"@@@@@@$$$#@@@@@@@@$$$$$@@@@@@$$$$##@@@@@@@@@@$$$$$@@@@@@@@@@$$$#",
";#######$@@@@@####@$@@@@@@#####$$@@@@@@@#####@$@@@@@@@@@#####$$@",
">#######$@@@@@####@$@@@@@@#####$$@@@@@@@#####@$@@@@@@@@@#####$$@",
",#######$@#########$@@@@#######$$@@###########$@@@@@#########$$@",
"'#######$@#########$@@@@#######$$@@###########$@@@@@#########$$@",
")#######$#@@@######$####@@#####$$##@##########$########@#####$$#",
")#####$$$$########$$$$$######$$$$$$##########$$$$$##########$$!~",
"{#####$$$$########$$$$$######$$$$$$##########$$$$$##########$$] ",
" ~$$$$$$$$$$$@@@@@#$$$$$$$$$$$$$$$$$$@@@@@@@@#$$$$$$$$$$$$$$$$^ ",
" /$$$$$$$$$$$@@@@@#$$$$$$$$$$$$$$$$$$@@@@@@@@#$$$$$$$$$$$$$$$$( ",
" @@@@@$$$$@@@@####@$###@@@@@@@@$$$$$@@@@@####@$###@@@@@@@@@@@$!/",
"@@@@@@@@$@####@#####@@@@@@@@@@@@@$$@#####@#####@@@@@@@@@@@@@@@@$",
"@@@@@@@@$@####@#####@@@@@@@@@@@@@$$@#####@#####@@@@@@@@@@@@@@@@$",
"@@@@@@@@$@####@#####@@@@@@@@@@@@@$$@#####@#####@@@@@@@@@@@@@@@@$",
"@#####@@$##########@@@@@#######@@$$###########@@@@@##########@@$",
"########$#########$@#############$$##########$@################$",
"######$$$$$$$$$$$$$$###########$$$$$$$$$$$$$$$$##############~  ",
"######$$$$$$$$$$$$$$###########$$$$$$$$$$$$$$$$##############/  ",
"_:####$$$$$$$$$$$$$$###########$$$$$$$$$$$$$$$$##############$< ",
" +@@@@@@@@@@@$$###@@@@@@##$$$@@@@@@@@@@@$$###@@@@@@#$$$$@@@@@@.+",
"[.@@######@@@@$@@@@@####@@$$@@@@@####@@@@$@@@@@####@$$$@@@@@####",
".########@####$@@@########$$@#######@####$@@@#######$$$@#######@",
"@########@####$@@@########$$@#######@####$@@@#######$$$@#######@",
"##############$$$$######$$$$#############$$$$######$$$$#########",
"_#############$$$$######$$$$#############$$$$######$$$$#########",
" ############$$$$$$$$$$$$$$$$###########$$$$$$$$$$$$$$$$########",
"[@@@@@$$$#@@@@@@@@$$$$$@@@@@@$$$$##@@@@@@@@@@$$$$$@@@@@@@@@@$$$#",
".@@@@@$$$#@@@@@@@@$$$$$@@@@@@$$$$##@@@@@@@@@@$$$$$@@@@@@@@@@$$$#",
"@#######$@@@@@####@$@@@@@@#####$$@@@@@@@#####@$@@@@@@@@@#####$$@",
"@#######$@@@@@####@$@@@@@@#####$$@@@@@@@#####@$@@@@@@@@@#####$$@",
"########$@#########$@@@@#######$$@@###########$@@@@@#########$$@",
"########$@#########$@@@@#######$$@@###########$@@@@@#########$$@",
"########$#@@@######$####@@#####$$##@##########$########@#####$~ ",
"######$$$$########$$$$$######$$$$$$##########$$$$$##########$$} ",
"_:####$$$$########$$$$$######$$$$$$##########$$$$$##########$$~ ",
" |$$$$$$$$$$$@@@@@#$$$$$$$$$$$$$$$$$$@@@@@@@@#$$$$$$$$$$$$$$$$1 ",
" |$$$$$$$$$$$@@@@@#$$$$$$$$$$$$$$$$$$@@@@@@@@#$$$$$$$$$$$$$$$$$$",
" .@@@@$$$$@@@@####@$###@@@@@@@@$$$$$@@@@@####@$###@@@@@@@@@@@$$$",
"@@@@@@@@$@####@#####@@@@@@@@@@@@@$$@###########@@@@@@@@@@@@@@@@$",
"@@@@@@@@$@####@#####@@@@@@@@@@@@@$$@###########@@@@@@@@@@@@@@@@$",
"@#####@@$##########@@@@@#######@@$$###########@@@@@##########@@$",
"@#####@@$##########@@@@@#######@@$$###########@@@@@##########@@$",
"########$#########$@#############$$##########$@###############2 ",
"3#####$$$$$$$$$$$$$$###########$$$$$$$$$$$$$$$$##############$4 ",
" @@@@@@@@@@@@$$###@@@@@@##$$$@@@@@@@@@@@$$###@@@@@@#$$$$@@@@@@@@",
" @@@@@@@@@@@@$$###@@@@@@##$$$@@@@@@@@@@@$$###@@@@@@#$$$$@@@@@@@@",
" @@@@@@@@@@@@$$###@@@@@@##$$$@@@@@@@@@@@$$###@@@@@@#$$$$@@@@@@@@",
"@@@@######@@@@$@@@@@####@@$$@@@@@####@@@@$@@@@@####@$$$@@@@@####",
"@########@####$@@@########$$@#######@####$@@@#######$$$@#######@",
"##############$$$$######$$$$#############$$$$######$$$$#########",
"25############$$$$######$$$$#############$$$$######$$$$#######56",
" 7############$$$$######$$$$#############$$$$######$$$$#######7 "};
