/* XPM */
static char * collectible_xpm[] = {
"64 64 9 1",
" 	c #755338",
".	c #503625",
"+	c #23427E",
"@	c #131327",
"#	c #3CB1C8",
"$	c #347AD0",
"%	c #C9FFF1",
"&	c #82EBCF",
"*	c #2A60C9",
"            .               .               .               .   ",
"            .               .               .               .   ",
".... ..    ......... ..    ......... ..    ......... ..    .....",
"                                                                ",
"                                                                ",
"                                                                ",
"     .               .               .               .          ",
"........ ..    ......... ..    ......... ..    ......... ..    .",
" .               .               .               .              ",
"                                                                ",
"                                                                ",
"                                                                ",
"...   .............   .............   .............   ..........",
"            .               .               .               .   ",
"                                                                ",
"                                                                ",
"            .               .               .               .   ",
"            .               .               .               .   ",
".... ..    ......... ..    ......... ..    ......... ..    .....",
"                                                                ",
"                                                                ",
"                                                                ",
"     .               .               .               .          ",
"........ ..    ......... ..    ......... ..    ......... ..    .",
" .               .               .               .              ",
"                                                                ",
"                             +++++@                             ",
"                            +#####$@                            ",
"...   .............   .....+%####$$&@ .............   ..........",
"            .             +&&%%%&&&+*@      .               .   ",
"                          +&&%***+#*$@                          ",
"                          +&&%*$$+#*$@                          ",
"            .             @&&%*$++#*$@      .               .   ",
"            .             @#&%++++$+*@      .               .   ",
".... ..    ......... ..   @##&###$$++@.    ......... ..    .....",
"                           @&*+++++$@                           ",
"                            @++++++@                            ",
"                             @@@@@@                             ",
"     .               .               .               .          ",
"........ ..    ......... ..    ......... ..    ......... ..    .",
" .               .               .               .              ",
"                                                                ",
"                                                                ",
"                                                                ",
"...   .............   .............   .............   ..........",
"            .               .               .               .   ",
"                                                                ",
"                                                                ",
"            .               .               .               .   ",
"            .               .               .               .   ",
".... ..    ......... ..    ......... ..    ......... ..    .....",
"                                                                ",
"                                                                ",
"                                                                ",
"     .               .               .               .          ",
"........ ..    ......... ..    ......... ..    ......... ..    .",
" .               .               .               .              ",
"                                                                ",
"                                                                ",
"                                                                ",
"...   .............   .............   .............   ..........",
"            .               .               .               .   ",
"                                                                ",
"                                                                "};
