/* XPM */
static char * duo_right_xpm[] = {
"64 64 35 1",
" 	c #755338",
".	c #503625",
"+	c #000000",
"@	c #454545",
"#	c #870808",
"$	c #212121",
"%	c #3A3A3A",
"&	c #573A23",
"*	c #402717",
"=	c #710707",
"-	c #AC7B5D",
";	c #F0B896",
">	c #21110D",
",	c #C1AC8F",
"'	c #F4D9B3",
")	c #C89A7D",
"!	c #F2D7B2",
"~	c #F1BDDD",
"{	c #F5DA0E",
"]	c #787E97",
"^	c #F59F0E",
"/	c #A4A8B5",
"(	c #CCB596",
"_	c #F0A4D4",
":	c #005C03",
"<	c #B7B7B7",
"[	c #2C65B5",
"}	c #979797",
"|	c #0C0E19",
"1	c #1D438A",
"2	c #3831CA",
"3	c #5751CB",
"4	c #463FCD",
"5	c #645FCB",
"6	c #745238",
"            .               .               .               .   ",
"            .               .               .               .   ",
".... ..    ......... ..    ......... ..    ......... ..    .....",
"                                                                ",
"                                                                ",
"                                                                ",
"     .               .               .               .          ",
"........ ..    ......... ..    ......... ..    ......... ..    .",
" .               .          ++++++++             .              ",
"                            ++++++++                            ",
"                          ++@@@@@@@@++                          ",
"                          ++@@@@@@@@++                          ",
"...   .............   ..++@@@@##$$$$$$++++++++.....   ..........",
"            .           ++@@@@##$$$$$$++++++++              .   ",
"          ++++++++  ++++%%%%######++++$$@@@@@@++                ",
"          ++++++++  ++++%%%%######++++$$@@@@@@++                ",
"          ++&&&&**++&&++++++====++$$$$@@@@@@@@@@++          .   ",
"          ++&&&&**++&&++++++====++$$$$@@@@@@@@@@++          .   ",
".... ..   ++++&&&&**&&**&&&&++++$$@@@@@@@@@@@@@@@@++ ..    .....",
"          ++++&&&&**&&**&&&&++++$$@@@@@@@@@@@@@@@@++            ",
"        ++**&&&&&&&&&&&&&&&&&&++$$@@@@@@@@@@@@@@@@@@++          ",
"        ++**&&&&&&&&&&&&&&&&&&++$$@@@@@@@@@@@@@@@@@@++          ",
"     .++**&&&&&&&&&&&&&&&&&&&&&&++$$@@@@@@@@@@@@@@@@++          ",
"......++**&&&&&&&&&&&&&&&&&&&&&&++$$@@@@@@@@@@@@@@@@++.. ..    .",
" .    ++**&&&&**&&&&&&****&&&&&&++$$@@@@@@@@@@@@@@@@$$++        ",
"      ++**&&&&**&&&&&&****&&&&&&++$$@@@@@@@@@@@@@@@@$$++        ",
"      ++********&&&&&&**----**&&**++$$@@@@$$;;@@@@@@$$++        ",
"      ++********&&&&&&**----**&&**++$$@@@@$$;;@@@@@@$$++        ",
"...   ++**&&****&&&&**--------****++$$@@$$;;;;;;@@@@$$++........",
"      ++**&&****&&&&**--------****++$$@@$$;;;;;;@@@@$$++    .   ",
"      ++**&&&&--**&&-->>,,,,>>++**++$$@@;;>>''''>>$$$$++        ",
"      ++**&&&&--**&&-->>,,,,>>++**++$$@@;;>>''''>>$$$$++        ",
"      ++****&&----**,,>>,,,,>>++++));;$$''>>''''>>!!$$++    .   ",
"      ++****&&----**,,>>,,,,>>++++));;$$''>>''''>>!!$$++    .   ",
".... .. ++****----,,,,,,,,,,,,++%%@@;;;;''''''''''''$$++   .....",
"        ++****----,,,,,,,,,,,,++%%@@;;;;''''''''''''$$++        ",
"          ++****----,,,,,,,,--++%%$$$$;;;;''''''''$$++          ",
"          ++****----,,,,,,,,--++%%$$$$;;;;''''''''$$++          ",
"     .    ++******----------++$$$$++~~~~;;;;;;~~++++{{          ",
"........ .++******----------++$$$$++~~~~;;;;;;~~++++{{.. ..    .",
" .          ++****&&]]]]]]**++$$++~~~~~~~~~~~~~~++{{^^{{        ",
"            ++****&&]]]]]]**++$$++~~~~~~~~~~~~~~++{{^^{{        ",
"            ++**&&&&]]]]//**++++((''__~~~~~~~~''::::{{          ",
"            ++**&&&&]]]]//**++++((''__~~~~~~~~''::::{{          ",
"...   ....++,,,,&&&&]]////**--++((''<<<<<<<<<<;;''++  ..........",
"          ++,,,,&&&&]]////**--++((''<<<<<<<<<<;;''++        .   ",
"          ++,,,,&&&&[[[[[[**--++++<<<<<<}}<<<<++++              ",
"          ++,,,,&&&&[[[[[[**--++++<<<<<<}}<<<<++++              ",
"          ||++11[[[[11[[[[++++||++2233++++4455++||||        .   ",
"          ||++11[[[[11[[[[++++||++2233++++4455++||||6       .   ",
".... .. ||||++**&&++++**&&++|||||||||||||||||||||||| ..    .....",
"        ||||++**&&++++**&&++||||||||||||||||||||||||            ",
"        ||||||||||||||||||||||||||||||||||||||||||              ",
"        ||||||||||||||||||||||||||||||||||||||||||              ",
"     .    ||||||||||||||||||||||     .               .          ",
"........ .||||||||||||||||||||||........ ..    ......... ..    .",
" .               .               .               .              ",
"                                                                ",
"                                                                ",
"                                                                ",
"...   .............   .............   .............   ..........",
"            .               .               .               .   ",
"                                                                ",
"                                                                "};
