/* XPM */
static char * duo_left_xpm[] = {
"64 64 34 1",
" 	c #755338",
".	c #503625",
"+	c #000000",
"@	c #454545",
"#	c #212121",
"$	c #870808",
"%	c #3A3A3A",
"&	c #710707",
"*	c #573A23",
"=	c #402717",
"-	c #F0B896",
";	c #AC7B5D",
">	c #21110D",
",	c #F4D9B3",
"'	c #C1AC8F",
")	c #F2D7B2",
"!	c #C89A7D",
"~	c #F5DA0E",
"{	c #F1BDDD",
"]	c #F59F0E",
"^	c #787E97",
"/	c #005C03",
"(	c #F0A4D4",
"_	c #CCB596",
":	c #A4A8B5",
"<	c #B7B7B7",
"[	c #979797",
"}	c #2C65B5",
"|	c #0C0E19",
"1	c #645FCB",
"2	c #463FCD",
"3	c #5751CB",
"4	c #3831CA",
"5	c #1D438A",
"            .               .               .               .   ",
"            .               .               .               .   ",
".... ..    ......... ..    ......... ..    ......... ..    .....",
"                                                                ",
"                                                                ",
"                                                                ",
"     .               .               .               .          ",
"........ ..    ......... ..    ......... ..    ......... ..    .",
" .               .          ++++++++             .              ",
"                            ++++++++                            ",
"                          ++@@@@@@@@++                          ",
"                          ++@@@@@@@@++                          ",
"...   ............++++++++######$$@@@@++...........   ..........",
"            .     ++++++++######$$@@@@++    .               .   ",
"                ++@@@@@@@@++++$$$$$$%%%%++++  ++++++++          ",
"                ++@@@@@@@@++++$$$$$$%%%%++++  ++++++++          ",
"            . ++@@@@@@@@@@@@##++&&&&++++++**++==****++      .   ",
"            . ++@@@@@@@@@@@@##++&&&&++++++**++==****++      .   ",
".... ..    .++@@@@@@@@@@@@@@@@##++++****==**==****++++.    .....",
"            ++@@@@@@@@@@@@@@@@##++++****==**==****++++          ",
"          ++@@@@@@@@@@@@@@@@@@##++******************==++        ",
"          ++@@@@@@@@@@@@@@@@@@##++******************==++        ",
"     .    ++@@@@@@@@@@@@@@@@##++**********************==++      ",
"........ .++@@@@@@@@@@@@@@@@##++**********************==++.    .",
" .      ++@@@@@@@@@@##@@@@@@##++******====******==****==++      ",
"        ++@@@@@@@@@@##@@@@@@##++******====******==****==++      ",
"        ++@@@@@@##--##@@@@##++==**==;;;;==******========++      ",
"        ++@@@@@@##--##@@@@##++==**==;;;;==******========++      ",
"...   ..++##@@@@------##@@##++====;;;;;;;;==****====**==++......",
"        ++##@@@@------##@@##++====;;;;;;;;==****====**==++  .   ",
"        ++####>>,,,,>>--@@##++==++>>''''>>;;**==;;****==++      ",
"        ++####>>,,,,>>--@@##++==++>>''''>>;;**==;;****==++      ",
"        ++##))>>,,,,>>,,##--!!++++>>''''>>''==;;;;**====++  .   ",
"        ++##))>>,,,,>>,,##--!!++++>>''''>>''==;;;;**====++  .   ",
".... .. ++##,,,,,,,,,,,,----@@%%++'''''''''''';;;;====++   .....",
"        ++##,,,,,,,,,,,,----@@%%++'''''''''''';;;;====++        ",
"          ++##,,,,,,,,----####%%++;;'''''''';;;;====++          ",
"          ++##,,,,,,,,----####%%++;;'''''''';;;;====++          ",
"     .    ~~++++{{------{{{{++##%%++;;;;;;;;;;======++          ",
"........ .~~++++{{------{{{{++##%%++;;;;;;;;;;======++.. ..    .",
" .      ~~]]~~++{{{{{{{{{{{{{{++%%++==^^^^^^**====++            ",
"        ~~]]~~++{{{{{{{{{{{{{{++%%++==^^^^^^**====++            ",
"          ~~////,,{{{{{{{{((,,__++++==::^^^^****==++            ",
"          ~~////,,{{{{{{{{((,,__++++==::^^^^****==++            ",
"...   ......++,,--<<<<<<<<<<,,__++;;==::::^^****''''++..........",
"            ++,,--<<<<<<<<<<,,__++;;==::::^^****''''++      .   ",
"              ++++<<<<[[<<<<<<++++;;==}}}}}}****''''++          ",
"              ++++<<<<[[<<<<<<++++;;==}}}}}}****''''++          ",
"            ||||++1122++++3344++||++++}}}}55}}}}55++||      .   ",
"            ||||++1122++++3344++||++++}}}}55}}}}55++||      .   ",
".... ..    ...||||||||||||||||||||||++**==++++**==++||||   .....",
"              ||||||||||||||||||||||++**==++++**==++||||        ",
"                ||||||||||||||||||||||||||||||||||||||||        ",
"                ||||||||||||||||||||||||||||||||||||||||        ",
"     .               .          ||||||||||||||||||||||          ",
"........ ..    ......... ..    .||||||||||||||||||||||.. ..    .",
" .               .               .               .              ",
"                                                                ",
"                                                                ",
"                                                                ",
"...   .............   .............   .............   ..........",
"            .               .               .               .   ",
"                                                                ",
"                                                                "};
