/* XPM */
static char *rcp02531972457984[] = {
/* columns rows colors chars-per-pixel */
"64 64 23 1 ",
"  c black",
". c #070302",
"X c #0C0E19",
"o c #21110D",
"O c #402717",
"+ c #503625",
"@ c #573A23",
"# c #553C25",
"$ c #005C03",
"% c #604724",
"& c #795737",
"* c #795837",
"= c #7E5D37",
"- c #755338",
"; c #785638",
": c #AC7B5D",
"> c #F59F0E",
", c #F5DA0E",
"< c #1D438A",
"1 c #2C65B5",
"2 c #787E97",
"3 c #A4A8B5",
"4 c #C1AC8F",
/* pixels */
"------------+---------------+---------------+---------------+---",
"------------+---------------+---------------+---------------+---",
"++++-++----+++++++++-++----+++++++++-++----+++++++++-++----+++++",
"------------------------------     --          -----------------",
"------------------------------     --          -----------------",
"-------------------------       @@@  OOO@@@@@  -----------------",
"-----+---------------+---       @@@  OOO@@@@@  ------+----------",
"++++++++-++----+++++++++-       @@@  OOO@@@@@  +++++++++-++----+",
"-+---------------+----   @@@@@OO@@@OO@@@@@     --+--------------",
"----------------------   @@@@@OO@@@OO@@@@@     -----------------",
"--------------------  @@@@@@@@@@@@@@@@@@@@@@@OO   --------------",
"--------------------  @@@@@@@@@@@@@@@@@@@@@@@OO   --------------",
"+++---+++++++++++++-  @@@@@@@@@@@@@@@@@@@@@@@OO   +---++++++++++",
"------------+----   @@@@@@@@@@@@@@@@@@@@@@@@@@@OOO  --------+---",
"-----------------   @@@@@@@@@@@@@@@@@@@@@@@@@@@OOO  ------------",
"-----------------   @@@@@@@OOOOO@@@@@@@@OO@@@@@OOO  ------------",
"------------+----   @@@@@@@OOOOO@@@@@@@@OO@@@@@OOO  --------+---",
"------------+----   @@@@@@@OOOOO@@@@@@@@OO@@@@@OOO  --------+---",
"++++-++----++++  OOO@@OOO:::::OO@@@@@@@@OOOOOOOOOO  -++----+++++",
"---------------  OOO@@OOO:::::OO@@@@@@@@OOOOOOOOOO  ------------",
"---------------  OOOOO::::::::::OOO@@@@@OOOOO@@OOO  ------------",
"---------------  OOOOO::::::::::OOO@@@@@OOOOO@@OOO  ------------",
"-----+---------  OOOOO::::::::::OOO@@@@@OOOOO@@OOO  -+----------",
"++++++++-++-***  OOO  ooo44444oo:::@@OOO::@@@@@OOO  ++++-++----+",
"-+----------***  OOO  ooo44444oo:::@@OOO::@@@@@OOO  ------------",
"---------------&&...  ooo44444oo444OO:::::@@@OOOOO  ------------",
"---------------&&...  ooo44444oo444OO:::::@@@OOOOO  ------------",
"---------------&&...  ooo44444oo444OO:::::@@@OOOOO  ------------",
"+++---++++++,,,++%%=  444444444444444:::::OOOOO   +---++++++++++",
"------------,,,--===  444444444444444:::::OOOOO   ----------+---",
"----------,,>>>,,---  :::4444444444:::::OOOOO  -----------------",
"----------,,>>>,,---  :::4444444444:::::OOOOO  -----------------",
"----------,,>>>,,---  :::4444444444:::::OOOOO  -------------+---",
"----------;;,,,$$        ::::::::::::OOOOOOOO  -------------+---",
"++++-++---;#,,,$$        ::::::::::::OOOOOOOO  +++++-++----+++++",
"------------   :::::OOOOOOO22222222@@OOOOO   -------------------",
"------------   :::::OOOOOOO22222222@@OOOOO   -------------------",
"------------   :::::OOOOOOO22222222@@OOOOO   -------------------",
"-----+------   :::::OOOOOOO33322222@@@@@OO   --------+----------",
"++++++++-++-   :::::OOOOOOO33322222@@@@@OO   --+++++++++-++----+",
"-+-------------  $$$     OO33333222@@@@@44444  --+--------------",
"---------------  $$$     OO33333222@@@@@44444  -----------------",
"---------------  $$$     OO33333222@@@@@44444  -----------------",
"-----------------$$$--   OO11111111@@@@@44444  -----------------",
"+++---+++++++++++$$$--   OO11111111@@@@@44444  ++++---++++++++++",
"------------+-------XXXXX  11111<<<11111<<   XX-------------+---",
"--------------------XXXXX  11111<<<11111<<   XX-----------------",
"--------------------XXXXX  11111<<<11111<<   XX-----------------",
"------------+----XXXXXXXX  @@@OO     @@@OO   XXXXX----------+---",
"------------+----XXXXXXXX  @@@OO     @@@OO   XXXXX----------+---",
"++++-++----++++++XXXXXXXXXXXXXXXXXXXXXXXXXXXXXXXXX++-++----+++++",
"-----------------XXXXXXXXXXXXXXXXXXXXXXXXXXXXXXXXX--------------",
"-----------------XXXXXXXXXXXXXXXXXXXXXXXXXXXXXXXXX--------------",
"--------------------XXXXXXXXXXXXXXXXXXXXXXXXXXX-----------------",
"-----+--------------XXXXXXXXXXXXXXXXXXXXXXXXXXX------+----------",
"++++++++-++----+++++++++-++----+++++++++-++----+++++++++-++----+",
"-+---------------+---------------+---------------+--------------",
"----------------------------------------------------------------",
"----------------------------------------------------------------",
"----------------------------------------------------------------",
"+++---+++++++++++++---+++++++++++++---+++++++++++++---++++++++++",
"------------+---------------+---------------+---------------+---",
"----------------------------------------------------------------",
"----------------------------------------------------------------"
};
