/* XPM */
static char *rcp02531548991173[] = {
/* columns rows colors chars-per-pixel */
"64 64 24 1 ",
"  c black",
". c #070302",
"X c #0C0E19",
"o c #21110D",
"O c #402717",
"+ c #503625",
"@ c #573A23",
"# c #553C25",
"$ c #583F25",
"% c #005C03",
"& c #604724",
"* c #795737",
"= c #795837",
"- c #7E5D37",
"; c #755338",
": c #785638",
"> c #AC7B5D",
", c #F59F0E",
"< c #F5DA0E",
"1 c #1D438A",
"2 c #2C65B5",
"3 c #787E97",
"4 c #A4A8B5",
"5 c #C1AC8F",
/* pixels */
";;;;;;;;;;;;+;;;;;;;;;;;;;;;+;;;;;;;;;;;;;;;+;;;;;;;;;;;;;;;+;;;",
";;;;;;;;;;;;+;;;;;;;;;;;;;;;+;;;;;;;;;;;;;;;+;;;;;;;;;;;;;;;+;;;",
"++++;++;;;;+++++++++;++;;;;+++++++++;++;;;;+++++++++;++;;;;+++++",
";;;;;;;;;;;;;;;;;          ;;     ;;;;;;;;;;;;;;;;;;;;;;;;;;;;;;",
";;;;;;;;;;;;;;;;;          ;;     ;;;;;;;;;;;;;;;;;;;;;;;;;;;;;;",
";;;;;;;;;;;;;;;;;  @@@@@OOO  @@@       ;;;;;;;;;;;;;;;;;;;;;;;;;",
";;;;;+;;;;;;;;;;;  @@@@@OOO  @@@       ;;;;;;;;;;;;;;+;;;;;;;;;;",
"++++++++;++;;;;++  @@@@@OOO  @@@       +;++;;;;+++++++++;++;;;;+",
";+;;;;;;;;;;;;;;;     @@@@@OO@@@OO@@@@@   ;;;;;;;+;;;;;;;;;;;;;;",
";;;;;;;;;;;;;;;;;     @@@@@OO@@@OO@@@@@   ;;;;;;;;;;;;;;;;;;;;;;",
";;;;;;;;;;;;;;   OO@@@@@@@@@@@@@@@@@@@@@@@  ;;;;;;;;;;;;;;;;;;;;",
";;;;;;;;;;;;;;   OO@@@@@@@@@@@@@@@@@@@@@@@  ;;;;;;;;;;;;;;;;;;;;",
"+++;;;++++++++   OO@@@@@@@@@@@@@@@@@@@@@@@  +++++++;;;++++++++++",
";;;;;;;;;;;;  OOO@@@@@@@@@@@@@@@@@@@@@@@@@@@   ;;;;;;;;;;;;;+;;;",
";;;;;;;;;;;;  OOO@@@@@@@@@@@@@@@@@@@@@@@@@@@   ;;;;;;;;;;;;;;;;;",
";;;;;;;;;;;;  OOO@@@@@OO@@@@@@@@OOOOO@@@@@@@   ;;;;;;;;;;;;;;;;;",
";;;;;;;;;;;;  OOO@@@@@OO@@@@@@@@OOOOO@@@@@@@   ;;;;;;;;;;;;;+;;;",
";;;;;;;;;;;;  OOO@@@@@OO@@@@@@@@OOOOO@@@@@@@   ;;;;;;;;;;;;;+;;;",
"++++;++;;;;+  OOOOOOOOOO@@@@@@@@OO>>>>>OOO@@OOO  +++;++;;;;+++++",
";;;;;;;;;;;;  OOOOOOOOOO@@@@@@@@OO>>>>>OOO@@OOO  ;;;;;;;;;;;;;;;",
";;;;;;;;;;;;  OOO@@OOOOO@@@@@OOO>>>>>>>>>>OOOOO  ;;;;;;;;;;;;;;;",
";;;;;;;;;;;;  OOO@@OOOOO@@@@@OOO>>>>>>>>>>OOOOO  ;;;;;;;;;;;;;;;",
";;;;;+;;;;;;  OOO@@OOOOO@@@@@OOO>>>>>>>>>>OOOOO  ;;;;+;;;;;;;;;;",
"++++++++;++;  OOO@@@@@>>OOO@@>>>oo55555ooo  OOO  $$$++++;++;;;;+",
";+;;;;;;;;;;  OOO@@@@@>>OOO@@>>>oo55555ooo  OOO  $==;;;;;;;;;;;;",
";;;;;;;;;;;;  OOOOO@@@>>>>>OO555oo55555ooo  ...**;;;;;;;;;;;;;;;",
";;;;;;;;;;;;  OOOOO@@@>>>>>OO555oo55555ooo  ...**;;;;;;;;;;;;;;;",
";;;;;;;;;;;;  OOOOO@@@>>>>>OO555oo55555ooo  ...**;;;;;;;;;;;;;;;",
"+++;;;++++++++   OOOOO>>>>>555555555555555  &&&++<<<;;++++++++++",
";;;;;;;;;;;;+;   OOOOO>>>>>555555555555555  &--;;<<<;;;;;;;;+;;;",
";;;;;;;;;;;;;;;;;  OOOOO>>>>>5555555555>>>  ;;;<<,,,<<;;;;;;;;;;",
";;;;;;;;;;;;;;;;;  OOOOO>>>>>5555555555>>>  ;;;<<,,,<<;;;;;;;;;;",
";;;;;;;;;;;;+;;;;  OOOOO>>>>>5555555555>>>  +;;<<,,,<<;;;;;;+;;;",
";;;;;;;;;;;;+;;;;  OOOOOOOO>>>>>>>>>>>>        %%<<<::;;;;;;+;;;",
"++++;++;;;;++++++  OOOOOOOO>>>>>>>>>>>>        %%<<<:#+;;;;+++++",
";;;;;;;;;;;;;;;;;;;   OOOOO@@33333333OOOOOOO>>>>>   ;;;;;;;;;;;;",
";;;;;;;;;;;;;;;;;;;   OOOOO@@33333333OOOOOOO>>>>>   ;;;;;;;;;;;;",
";;;;;;;;;;;;;;;;;;;   OOOOO@@33333333OOOOOOO>>>>>   ;;;;;;;;;;;;",
";;;;;+;;;;;;;;;;;;;   OO@@@@@33333444OOOOOOO>>>>>   ;+;;;;;;;;;;",
"++++++++;++;;;;++++   OO@@@@@33333444OOOOOOO>>>>>   ++++;++;;;;+",
";+;;;;;;;;;;;;;;;  55555@@@@@33344444OO     %%%  +;;;;;;;;;;;;;;",
";;;;;;;;;;;;;;;;;  55555@@@@@33344444OO     %%%  ;;;;;;;;;;;;;;;",
";;;;;;;;;;;;;;;;;  55555@@@@@33344444OO     %%%  ;;;;;;;;;;;;;;;",
";;;;;;;;;;;;;;;;;  55555@@@@@22222222OO   ;;%%%;;;;;;;;;;;;;;;;;",
"+++;;;+++++++++++  55555@@@@@22222222OO   ++%%%++++;;;++++++++++",
";;;;;;;;;;;;+;;;;XX   112222211122222  XXXXX+;;;;;;;;;;;;;;;+;;;",
";;;;;;;;;;;;;;;;;XX   112222211122222  XXXXX;;;;;;;;;;;;;;;;;;;;",
";;;;;;;;;;;;;;;;;XX   112222211122222  XXXXX;;;;;;;;;;;;;;;;;;;;",
";;;;;;;;;;;;+;XXXXX   OO@@@     OO@@@  XXXXXXXX;;;;;;;;;;;;;+;;;",
";;;;;;;;;;;;+;XXXXX   OO@@@     OO@@@  XXXXXXXX;;;;;;;;;;;;;+;;;",
"++++;++;;;;+++XXXXXXXXXXXXXXXXXXXXXXXXXXXXXXXXX+++++;++;;;;+++++",
";;;;;;;;;;;;;;XXXXXXXXXXXXXXXXXXXXXXXXXXXXXXXXX;;;;;;;;;;;;;;;;;",
";;;;;;;;;;;;;;XXXXXXXXXXXXXXXXXXXXXXXXXXXXXXXXX;;;;;;;;;;;;;;;;;",
";;;;;;;;;;;;;;;;;XXXXXXXXXXXXXXXXXXXXXXXXXXX;;;;;;;;;;;;;;;;;;;;",
";;;;;+;;;;;;;;;;;XXXXXXXXXXXXXXXXXXXXXXXXXXX;;;;;;;;;+;;;;;;;;;;",
"++++++++;++;;;;+++++++++;++;;;;+++++++++;++;;;;+++++++++;++;;;;+",
";+;;;;;;;;;;;;;;;+;;;;;;;;;;;;;;;+;;;;;;;;;;;;;;;+;;;;;;;;;;;;;;",
";;;;;;;;;;;;;;;;;;;;;;;;;;;;;;;;;;;;;;;;;;;;;;;;;;;;;;;;;;;;;;;;",
";;;;;;;;;;;;;;;;;;;;;;;;;;;;;;;;;;;;;;;;;;;;;;;;;;;;;;;;;;;;;;;;",
";;;;;;;;;;;;;;;;;;;;;;;;;;;;;;;;;;;;;;;;;;;;;;;;;;;;;;;;;;;;;;;;",
"+++;;;+++++++++++++;;;+++++++++++++;;;+++++++++++++;;;++++++++++",
";;;;;;;;;;;;+;;;;;;;;;;;;;;;+;;;;;;;;;;;;;;;+;;;;;;;;;;;;;;;+;;;",
";;;;;;;;;;;;;;;;;;;;;;;;;;;;;;;;;;;;;;;;;;;;;;;;;;;;;;;;;;;;;;;;",
";;;;;;;;;;;;;;;;;;;;;;;;;;;;;;;;;;;;;;;;;;;;;;;;;;;;;;;;;;;;;;;;"
};
