/* XPM */
static char * player_flower_left_xpm[] = {
"64 64 16 1",
" 	c #755338",
".	c #503625",
"+	c #000000",
"@	c #573A23",
"#	c #402717",
"$	c #AC7B5D",
"%	c #21110D",
"&	c #C1AC8F",
"*	c #F5DA0E",
"=	c #F59F0E",
"-	c #005C03",
";	c #787E97",
">	c #A4A8B5",
",	c #2C65B5",
"'	c #0C0E19",
")	c #1D438A",
"            .               .               .               .   ",
"            .               .               .               .   ",
".... ..    ......... ..    ......... ..    ......... ..    .....",
"                                                                ",
"                                                                ",
"                                                                ",
"     .               .               .               .          ",
"........ ..    ......... ..    ......... ..    ......... ..    .",
" .               .               .               .              ",
"                                                                ",
"                                                                ",
"                                                                ",
"...   .............   ........++++. ++++++++.......   ..........",
"            .               . ++++  ++++++++.               .   ",
"                          ++++++@@++##@@@@++                    ",
"                          ++++++@@++##@@@@++                    ",
"            .           ++@@@@##@@##@@@@++++.               .   ",
"            .           ++@@@@##@@##@@@@++++.               .   ",
".... ..    ......... .++@@@@@@@@@@@@@@@@@@##++...... ..    .....",
"                      ++@@@@@@@@@@@@@@@@@@##++                  ",
"                    ++@@@@@@@@@@@@@@@@@@@@@@##++                ",
"                    ++@@@@@@@@@@@@@@@@@@@@@@##++                ",
"     .              ++@@@@@@####@@@@@@##@@@@##++     .          ",
"........ ..    .....++@@@@@@####@@@@@@##@@@@##++........ ..    .",
" .               .++##@@##$$$$##@@@@@@########++ .              ",
"                  ++##@@##$$$$##@@@@@@########++                ",
"                  ++####$$$$$$$$##@@@@####@@##++                ",
"                  ++####$$$$$$$$##@@@@####@@##++                ",
"...   ............++##++%%&&&&%%$$@@##$$@@@@##++...   ..........",
"            .     ++##++%%&&&&%%$$@@##$$@@@@##++            .   ",
"                    ++++%%&&&&%%&&##$$$$@@####++                ",
"                    ++++%%&&&&%%&&##$$$$@@####++                ",
"            .   **    ++&&&&&&&&&&&&$$$$####++              .   ",
"            .   **    ++&&&&&&&&&&&&$$$$####++              .   ",
".... ..    ...**==** .++$$&&&&&&&&$$$$####++........ ..    .....",
"              **==**  ++$$&&&&&&&&$$$$####++                    ",
"                **--++++++$$$$$$$$$$######++                    ",
"                **--++++++$$$$$$$$$$######++                    ",
"     .          ++$$$$######;;;;;;@@####++           .          ",
"........ ..    .++$$$$######;;;;;;@@####++.    ......... ..    .",
" .              ++$$$$######>>;;;;@@@@##++       .              ",
"                ++$$$$######>>;;;;@@@@##++                      ",
"                  ++--++++##>>>>;;@@@@&&&&++                    ",
"                  ++--++++##>>>>;;@@@@&&&&++                    ",
"...   ............. --..++##,,,,,,@@@@&&&&++.......   ..........",
"            .       --  ++##,,,,,,@@@@&&&&++.               .   ",
"                        ''++,,,,)),,,,))++''                    ",
"                        ''++,,,,)),,,,))++''                    ",
"            .         ''''++@@##++++@@##++''''              .   ",
"            .         ''''++@@##++++@@##++''''              .   ",
".... ..    .........''''''''''''''''''''''''''...... ..    .....",
"                    ''''''''''''''''''''''''''                  ",
"                      ''''''''''''''''''''''                    ",
"                      ''''''''''''''''''''''                    ",
"     .               .               .               .          ",
"........ ..    ......... ..    ......... ..    ......... ..    .",
" .               .               .               .              ",
"                                                                ",
"                                                                ",
"                                                                ",
"...   .............   .............   .............   ..........",
"            .               .               .               .   ",
"                                                                ",
"                                                                "};
