/* XPM */
static char * player_flower_left_xpm[] = {
"64 64 58 1",
" 	c #755338",
".	c #503625",
"+	c #000000",
"@	c #110904",
"#	c #6A4B32",
"$	c #D03128",
"%	c #E62825",
"&	c #D62A25",
"*	c #E64A48",
"=	c #D97B7B",
"-	c #DA3F3F",
";	c #EA2524",
">	c #F02525",
",	c #DB2A25",
"'	c #DD2A26",
")	c #CE6766",
"!	c #D9BCBC",
"~	c #E17A79",
"{	c #B31D1C",
"]	c #DA2222",
"^	c #DE2824",
"/	c #E33129",
"(	c #EE3736",
"_	c #E67979",
":	c #DE524F",
"<	c #573A23",
"[	c #402717",
"}	c #D12A25",
"|	c #C81F1F",
"1	c #E12524",
"2	c #F22525",
"3	c #EA2B27",
"4	c #E32323",
"5	c #D42924",
"6	c #9B201A",
"7	c #B81B1B",
"8	c #E32222",
"9	c #EA2A27",
"0	c #9B1917",
"a	c #AB1919",
"b	c #961816",
"c	c #AC7B5D",
"d	c #21110D",
"e	c #C1AC8F",
"f	c #FBCA0C",
"g	c #F9C90A",
"h	c #FB920C",
"i	c #F6C611",
"j	c #2C6F29",
"k	c #787E97",
"l	c #AB7A5C",
"m	c #A4A8B5",
"n	c #2A6A27",
"o	c #745237",
"p	c #080402",
"q	c #2C65B5",
"r	c #0C0E19",
"s	c #1D438A",
"   .               .               .               .            ",
"   .               .               .               .            ",
".....    .. .........    .. .........    .. .........    .. ....",
"                                                                ",
"                                                                ",
"            +@+ +++#                                            ",
"          .+$%&+*=-+      . ++++  ++++++++.               .     ",
".    .. ...+;>,')!~+ .. ....++++. ++++++++.......    .. ........",
"           +{]^/(_:+    ++++++<<++[[<<<<++    .               . ",
"           +}|12345+    ++++++<<++[[<<<<++                      ",
"            +6789]+#  ++<<<<[[<<[[<<<<++++                      ",
"             +0ab+    ++<<<<[[<<[[<<<<++++                      ",
"..........   .+++...++<<<<<<<<<<<<<<<<<<[[++ .............   ...",
"   .               .++<<<<<<<<<<<<<<<<<<[[++       .            ",
"                  ++<<<<<<<<<<<<<<<<<<<<<<[[++                  ",
"                  ++<<<<<<<<<<<<<<<<<<<<<<[[++                  ",
"   .              ++<<<<<<[[[[<<<<<<[[<<<<[[++     .            ",
"   .              ++<<<<<<[[[[<<<<<<[[<<<<[[++     .            ",
".....    .. ....++[[<<[[cccc[[<<<<<<[[[[[[[[++.......    .. ....",
"                ++[[<<[[cccc[[<<<<<<[[[[[[[[++                  ",
"                ++[[[[cccccccc[[<<<<[[[[<<[[++                  ",
"                ++[[[[cccccccc[[<<<<[[[[<<[[++                  ",
"          .     ++[[++ddeeeeddcc<<[[cc<<<<[[++            .     ",
".    .. ........++[[++ddeeeeddcc<<[[cc<<<<[[++...    .. ........",
"              .+++++++ddeeeeddee[[cccc<<[[[[++.               . ",
"              +++fg+++ddeeeeddee[[cccc<<[[[[++                  ",
"              ++ffff++eeeeeeeeeeeecccc[[[[++                    ",
"             ++ffhhfg+eeeeeeeeeeeecccc[[[[++                    ",
"..........   ++ffhhfg+cceeeeeeeecccc[[[[++   .............   ...",
"   .          ++ffff++cceeeeeeeecccc[[[[++         .            ",
"              +++ii+++++cccccccccc[[[[[[++                      ",
"               ++jj+++++cccccccccc[[[[[[++                      ",
"   .           ++ccccc++[[kkkkkk<<[[[[++           .            ",
"   .           ++ccccc++[[kkkkkk<<[[[[++           .            ",
".....    .. ...++ccccccl[[mmkkkk<<<<[[++ .. .........    .. ....",
"               ++ccccccl[[mmkkkk<<<<[[++                        ",
"               ++jn+++++[[mmmmkk<<<<eeee++                      ",
"               ++jn+++++[[mmmmkk<<<<eeee++                      ",
"          .    oo++   +p[[qqqqqq<<<<eeee++.               .     ",
".    .. .......  ++  .+p[[qqqqqq<<<<eeee++.......    .. ........",
"              .     rr++++qqqqssqqqqss++rr    .               . ",
"                    rr++++qqqqssqqqqss++rr                      ",
"                  rrrrrr++<<[[++++<<[[++rrrr                    ",
"                  rrrrrr++<<[[++++<<[[++rrrr                    ",
"..........   .....rrrrrrrrrrrrrrrrrrrrrrrrrr .............   ...",
"   .              rrrrrrrrrrrrrrrrrrrrrrrrrr       .            ",
"                    rrrrrrrrrrrrrrrrrrrrrr                      ",
"                    rrrrrrrrrrrrrrrrrrrrrr                      ",
"   .               .               .               .            ",
"   .               .               .               .            ",
".....    .. .........    .. .........    .. .........    .. ....",
"                                                                ",
"                                                                ",
"                                                                ",
"          .               .               .               .     ",
".    .. .........    .. .........    .. .........    .. ........",
"              .               .               .               . ",
"                                                                ",
"                                                                ",
"                                                                ",
"..........   .............   .............   .............   ...",
"   .               .               .               .            ",
"                                                                ",
"                                                                "};
