/* XPM */
static char * player_flower_right_xpm[] = {
"64 64 58 1",
" 	c #755338",
".	c #503625",
"+	c #6A4B32",
"@	c #000000",
"#	c #110904",
"$	c #DA3F3F",
"%	c #D97B7B",
"&	c #E64A48",
"*	c #D62A25",
"=	c #E62825",
"-	c #D03128",
";	c #E17A79",
">	c #D9BCBC",
",	c #CE6766",
"'	c #DD2A26",
")	c #DB2A25",
"!	c #F02525",
"~	c #EA2524",
"{	c #573A23",
"]	c #402717",
"^	c #DE524F",
"/	c #E67979",
"(	c #EE3736",
"_	c #E33129",
":	c #DE2824",
"<	c #DA2222",
"[	c #B31D1C",
"}	c #D42924",
"|	c #E32323",
"1	c #EA2B27",
"2	c #F22525",
"3	c #E12524",
"4	c #C81F1F",
"5	c #D12A25",
"6	c #EA2A27",
"7	c #E32222",
"8	c #B81B1B",
"9	c #9B201A",
"0	c #961816",
"a	c #AB1919",
"b	c #9B1917",
"c	c #AC7B5D",
"d	c #21110D",
"e	c #C1AC8F",
"f	c #F9C90A",
"g	c #FBCA0C",
"h	c #FB920C",
"i	c #F6C611",
"j	c #2C6F29",
"k	c #787E97",
"l	c #A4A8B5",
"m	c #AB7A5C",
"n	c #2A6A27",
"o	c #2C65B5",
"p	c #080402",
"q	c #745237",
"r	c #0C0E19",
"s	c #1D438A",
"            .               .               .               .   ",
"            .               .               .               .   ",
".... ..    ......... ..    ......... ..    ......... ..    .....",
"                                                                ",
"                                                                ",
"                                            +@@@ @#@            ",
"     .               .@@@@@@@@  @@@@ .      @$%&@*=-@.          ",
"........ ..    .......@@@@@@@@ .@@@@.... .. @;>,')!~@... ..    .",
" .               .    @@{{{{]]@@{{@@@@@@    @^/(_:<[@           ",
"                      @@{{{{]]@@{{@@@@@@    @}|12345@           ",
"                      @@@@{{{{]]{{]]{{{{@@  +@<6789@            ",
"                      @@@@{{{{]]{{]]{{{{@@    @0ab@             ",
"...   ............. @@]]{{{{{{{{{{{{{{{{{{@@...@@@.   ..........",
"            .       @@]]{{{{{{{{{{{{{{{{{{@@.               .   ",
"                  @@]]{{{{{{{{{{{{{{{{{{{{{{@@                  ",
"                  @@]]{{{{{{{{{{{{{{{{{{{{{{@@                  ",
"            .     @@]]{{{{]]{{{{{{]]]]{{{{{{@@              .   ",
"            .     @@]]{{{{]]{{{{{{]]]]{{{{{{@@              .   ",
".... ..    .......@@]]]]]]]]{{{{{{]]cccc]]{{]]@@.... ..    .....",
"                  @@]]]]]]]]{{{{{{]]cccc]]{{]]@@                ",
"                  @@]]{{]]]]{{{{]]cccccccc]]]]@@                ",
"                  @@]]{{]]]]{{{{]]cccccccc]]]]@@                ",
"     .            @@]]{{{{cc]]{{ccddeeeedd@@]]@@     .          ",
"........ ..    ...@@]]{{{{cc]]{{ccddeeeedd@@]]@@........ ..    .",
" .               .@@]]]]{{cccc]]eeddeeeedd@@@@@@@.              ",
"                  @@]]]]{{cccc]]eeddeeeedd@@@fg@@@              ",
"                    @@]]]]cccceeeeeeeeeeee@@gggg@@              ",
"                    @@]]]]cccceeeeeeeeeeee@fghhgg@@             ",
"...   .............   @@]]]]cccceeeeeeeecc@fghhgg@@   ..........",
"            .         @@]]]]cccceeeeeeeecc@@gggg@@          .   ",
"                      @@]]]]]]cccccccccc@@@@@ii@@@              ",
"                      @@]]]]]]cccccccccc@@@@@jj@@               ",
"            .           @@]]]]{{kkkkkk]]@@ccccc@@           .   ",
"            .           @@]]]]{{kkkkkk]]@@ccccc@@           .   ",
".... ..    ......... .. @@]]{{{{kkkkll]]mcccccc@@... ..    .....",
"                        @@]]{{{{kkkkll]]mcccccc@@               ",
"                      @@eeee{{{{kkllll]]@@@@@nj@@               ",
"                      @@eeee{{{{kkllll]]@@@@@nj@@               ",
"     .               .@@eeee{{{{oooooo]]p@   @@qq    .          ",
"........ ..    .......@@eeee{{{{oooooo]]p@.  @@  ....... ..    .",
" .               .    rr@@ssoooossoooo@@@@rr     .              ",
"                      rr@@ssoooossoooo@@@@rr                    ",
"                    rrrr@@]]{{@@@@]]{{@@rrrrrr                  ",
"                    rrrr@@]]{{@@@@]]{{@@rrrrrr                  ",
"...   ............. rrrrrrrrrrrrrrrrrrrrrrrrrr.....   ..........",
"            .       rrrrrrrrrrrrrrrrrrrrrrrrrr              .   ",
"                      rrrrrrrrrrrrrrrrrrrrrr                    ",
"                      rrrrrrrrrrrrrrrrrrrrrr                    ",
"            .               .               .               .   ",
"            .               .               .               .   ",
".... ..    ......... ..    ......... ..    ......... ..    .....",
"                                                                ",
"                                                                ",
"                                                                ",
"     .               .               .               .          ",
"........ ..    ......... ..    ......... ..    ......... ..    .",
" .               .               .               .              ",
"                                                                ",
"                                                                ",
"                                                                ",
"...   .............   .............   .............   ..........",
"            .               .               .               .   ",
"                                                                ",
"                                                                "};
