/* XPM */
static char * cali_idle_right_xpm[] = {
"64 64 18 1",
" 	c #755338",
".	c #503625",
"+	c #000000",
"@	c #454545",
"#	c #870808",
"$	c #212121",
"%	c #F0B896",
"&	c #21110D",
"*	c #F4D9B3",
"=	c #F1BDDD",
"-	c #F0A4D4",
";	c #B7B7B7",
">	c #0C0E19",
",	c #979797",
"'	c #3831CA",
")	c #5751CB",
"!	c #463FCD",
"~	c #645FCB",
"            .               .               .               .   ",
"            .               .               .               .   ",
".... ..    ......... ..    ......... ..    ......... ..    .....",
"                                                                ",
"                                                                ",
"                                                                ",
"     .               .               .               .          ",
"........ ..    ......... ..    ......... ..    ......... ..    .",
" .               .  ++++++++     .               .              ",
"                    ++++++++                                    ",
"                  ++@@@@@@@@++                                  ",
"                  ++@@@@@@@@++                                  ",
"...   ..........++@@@@##$$$$$$++++++++.............   ..........",
"            .   ++@@@@##$$$$$$++++++++      .               .   ",
"              ++@@@@######++++$$@@@@@@++                        ",
"              ++@@@@######++++$$@@@@@@++                        ",
"            . ++@@######++$$$$@@@@@@@@@@++  .               .   ",
"            . ++@@######++$$$$@@@@@@@@@@++  .               .   ",
".... ..    ...++@@@@##++$$@@@@@@@@@@@@@@@@++........ ..    .....",
"              ++@@@@##++$$@@@@@@@@@@@@@@@@++                    ",
"              ++@@$$++$$@@@@@@@@@@@@@@@@@@$$++                  ",
"              ++@@$$++$$@@@@@@@@@@@@@@@@@@$$++                  ",
"     .        ++@@$$++@@@@@@@@@@@@@@@@@@@@@@++       .          ",
"........ ..   ++@@$$++@@@@@@@@@@@@@@@@@@@@@@++ ......... ..    .",
" .          ++@@@@$$++@@@@@@@@@@@@@@$$@@@@@@$$++ .              ",
"            ++@@@@$$++@@@@@@@@@@@@@@$$@@@@@@$$++                ",
"            ++@@@@$$++@@@@$$@@@@@@$$%%@@@@@@$$++                ",
"            ++@@@@$$++@@@@$$@@@@@@$$%%@@@@@@$$++                ",
"...   ....++@@@@@@$$++@@@@$$$$@@$$$$%%%%%%@@$$++...   ..........",
"          ++@@@@@@$$++@@@@$$$$@@$$$$%%%%%%@@$$++            .   ",
"            ++@@@@++$$@@@@%%$$@@%%&&****&&@@$$++                ",
"            ++@@@@++$$@@@@%%$$@@%%&&****&&@@$$++                ",
"            . ++++++$$@@@@%%%%$$**&&****&&**$$++            .   ",
"            . ++++++$$@@@@%%%%$$**&&****&&**$$++            .   ",
".... ..    .......++$$$$@@@@%%%%************$$++.... ..    .....",
"                  ++$$$$@@@@%%%%************$$++                ",
"                    ++$$@@@@@@%%%%********$$++                  ",
"                    ++$$@@@@@@%%%%********$$++                  ",
"     .              ++$$@@++====%%%%%%==++++         .          ",
"........ ..    .....++$$@@++====%%%%%%==++++   ......... ..    .",
" .               .  ++$$++==============++       .              ",
"                    ++$$++==============++                      ",
"                      ++****--========****++                    ",
"                      ++****--========****++                    ",
"...   .............   ++****;;;;;;;;;;%%**++.......   ..........",
"            .         ++****;;;;;;;;;;%%**++.               .   ",
"                      >>++;;;;;;,,;;;;++++                      ",
"                      >>++;;;;;;,,;;;;++++                      ",
"            .         >>++''))++++!!~~++>>  .               .   ",
"            .         >>++''))++++!!~~++>>  .               .   ",
".... ..    ......... .>>>>>>>>>>>>>>>>>>>> ......... ..    .....",
"                      >>>>>>>>>>>>>>>>>>>>                      ",
"                        >>>>>>>>>>>>>>>>                        ",
"                        >>>>>>>>>>>>>>>>                        ",
"     .               .               .               .          ",
"........ ..    ......... ..    ......... ..    ......... ..    .",
" .               .               .               .              ",
"                                                                ",
"                                                                ",
"                                                                ",
"...   .............   .............   .............   ..........",
"            .               .               .               .   ",
"                                                                ",
"                                                                "};
